<svg xmlns="http://www.w3.org/2000/svg" width="256" height="256" viewBox="0 0 256 256">
  <defs>
    <linearGradient id="doc" x1="0" x2="0" y1="0" y2="1">
      <stop offset="0" stop-color="#ffffff"/>
      <stop offset="1" stop-color="#edf5ff"/>
    </linearGradient>
    <filter id="shadow" x="-25%" y="-25%" width="170%" height="180%">
      <feDropShadow dx="0" dy="10" stdDeviation="10" flood-color="#7f98bc" flood-opacity="0.34"/>
    </filter>
  </defs>
  <g filter="url(#shadow)">
    <path d="M70 38h84l38 38v130c0 9-7 16-16 16H70c-9 0-16-7-16-16V54c0-9 7-16 16-16z" fill="url(#doc)" stroke="#58657c" stroke-width="10"/>
    <path d="M154 38v32c0 9 7 16 16 16h22" fill="#dce8ff"/>
    <path d="M154 38v32c0 9 7 16 16 16h22" fill="none" stroke="#97add0" stroke-width="8" stroke-linejoin="round"/>
    <rect x="82" y="84" width="58" height="12" rx="6" fill="#ff6666"/>
    <rect x="82" y="108" width="82" height="12" rx="6" fill="#6d788c"/>
    <rect x="82" y="132" width="72" height="12" rx="6" fill="#6d788c"/>
    <rect x="82" y="156" width="52" height="12" rx="6" fill="#6d788c"/>
    <rect x="78" y="180" width="90" height="16" rx="8" fill="#3b69d2"/>
    <path d="M118 166v44" stroke="#f0b83f" stroke-width="10" stroke-linecap="round"/>
    <path d="M96 188h44" stroke="#f0b83f" stroke-width="10" stroke-linecap="round"/>
    <circle cx="118" cy="188" r="22" fill="none" stroke="#9c7712" stroke-width="8"/>
  </g>
</svg>
