<svg xmlns="http://www.w3.org/2000/svg" width="256" height="256" viewBox="0 0 256 256">
  <defs>
    <linearGradient id="shell" x1="0" x2="1" y1="0" y2="1">
      <stop offset="0" stop-color="#4269d5"/>
      <stop offset="1" stop-color="#2246a8"/>
    </linearGradient>
    <linearGradient id="screen" x1="0" x2="0" y1="0" y2="1">
      <stop offset="0" stop-color="#eff6ff"/>
      <stop offset="1" stop-color="#c8dcff"/>
    </linearGradient>
    <filter id="shadow" x="-25%" y="-25%" width="170%" height="180%">
      <feDropShadow dx="0" dy="10" stdDeviation="10" flood-color="#7a96c8" flood-opacity="0.38"/>
    </filter>
  </defs>
  <g filter="url(#shadow)">
    <rect x="56" y="44" width="144" height="116" rx="24" fill="url(#shell)"/>
    <rect x="66" y="56" width="124" height="86" rx="16" fill="url(#screen)"/>
    <rect x="106" y="166" width="44" height="14" rx="5" fill="#576274"/>
    <rect x="84" y="180" width="88" height="10" rx="5" fill="#454e5c"/>

    <rect x="80" y="72" width="96" height="16" rx="6" fill="#3f67c8" opacity="0.95"/>
    <rect x="80" y="96" width="42" height="28" rx="7" fill="#ffd75d"/>
    <rect x="128" y="96" width="48" height="12" rx="5" fill="#7fa7ff"/>
    <rect x="128" y="114" width="34" height="10" rx="5" fill="#ff7068"/>

    <rect x="38" y="78" width="28" height="86" rx="10" fill="#2f4fa9"/>
    <rect x="42" y="84" width="20" height="18" rx="4" fill="#eaf2ff"/>
    <rect x="42" y="108" width="20" height="18" rx="4" fill="#eaf2ff"/>
    <rect x="42" y="132" width="20" height="18" rx="4" fill="#eaf2ff"/>
    <rect x="48" y="88" width="8" height="10" rx="2" fill="#4b72db"/>
    <rect x="48" y="112" width="8" height="10" rx="2" fill="#4b72db"/>
    <rect x="48" y="136" width="8" height="10" rx="2" fill="#4b72db"/>
  </g>
</svg>
