<svg xmlns="http://www.w3.org/2000/svg" width="256" height="256" viewBox="0 0 256 256">
  <defs>
    <linearGradient id="sheet" x1="0" x2="0" y1="0" y2="1">
      <stop offset="0" stop-color="#ffffff"/>
      <stop offset="1" stop-color="#f6fbff"/>
    </linearGradient>
    <filter id="shadow" x="-20%" y="-20%" width="160%" height="180%">
      <feDropShadow dx="0" dy="8" stdDeviation="10" flood-color="#9ebfc6" flood-opacity="0.45"/>
    </filter>
  </defs>
  <g filter="url(#shadow)">
    <rect x="116" y="52" width="74" height="92" rx="14" fill="#d8f0f1" stroke="#8dbfc4" stroke-width="8"/>
    <path d="M72 76h78l26 26v92c0 9-7 16-16 16H72c-9 0-16-7-16-16V92c0-9 7-16 16-16z" fill="url(#sheet)" stroke="#586378" stroke-width="8"/>
    <path d="M150 76v24c0 7 5 12 12 12h26" fill="#eef9fa"/>
    <path d="M150 76v24c0 7 5 12 12 12h26" fill="none" stroke="#8dbfc4" stroke-width="7" stroke-linejoin="round"/>
    <rect x="80" y="98" width="56" height="10" rx="5" fill="#ff5c62"/>
    <rect x="80" y="122" width="74" height="10" rx="5" fill="#667487"/>
    <rect x="80" y="146" width="66" height="10" rx="5" fill="#667487"/>
    <rect x="80" y="170" width="46" height="10" rx="5" fill="#667487"/>
    <path d="M154 54h38v12" fill="none" stroke="#9ed5d6" stroke-width="10" stroke-linecap="round"/>
  </g>
</svg>
