<svg xmlns="http://www.w3.org/2000/svg" width="256" height="256" viewBox="0 0 256 256">
  <defs>
    <linearGradient id="bg" x1="0" x2="1" y1="0" y2="1">
      <stop offset="0" stop-color="#ffffff"/>
      <stop offset="1" stop-color="#e7f3f5"/>
    </linearGradient>
    <filter id="shadow" x="-20%" y="-20%" width="160%" height="180%">
      <feDropShadow dx="0" dy="8" stdDeviation="8" flood-color="#abc9d2" flood-opacity="0.45"/>
    </filter>
  </defs>
  <rect x="16" y="16" width="224" height="224" rx="56" fill="url(#bg)"/>
  <g filter="url(#shadow)">
    <path d="M120 54h58v112" fill="none" stroke="#9ecfd4" stroke-width="10" stroke-linecap="round"/>
    <path d="M78 74h72l28 28v92c0 8-6 14-14 14H78c-8 0-14-6-14-14V88c0-8 6-14 14-14z" fill="#ffffff" stroke="#5a6477" stroke-width="8"/>
    <path d="M150 74v26c0 5 3 8 8 8h28" fill="#eef8fa"/>
    <path d="M92 108h48" stroke="#ff5151" stroke-width="9" stroke-linecap="round"/>
    <path d="M92 134h56M92 158h48M92 182h36" stroke="#6a7688" stroke-width="9" stroke-linecap="round"/>
    <path d="M150 74v26c0 5 3 8 8 8h28" fill="none" stroke="#8ab9c4" stroke-width="7" stroke-linejoin="round"/>
  </g>
</svg>
