<svg xmlns="http://www.w3.org/2000/svg" width="256" height="256" viewBox="0 0 256 256">
  <defs>
    <linearGradient id="frame" x1="0" x2="1" y1="0" y2="1">
      <stop offset="0" stop-color="#5e8df1"/>
      <stop offset="1" stop-color="#2f5bbf"/>
    </linearGradient>
    <linearGradient id="glass" x1="0" x2="0" y1="0" y2="1">
      <stop offset="0" stop-color="#eef6ff"/>
      <stop offset="1" stop-color="#d7e7ff"/>
    </linearGradient>
    <filter id="shadow" x="-25%" y="-25%" width="170%" height="180%">
      <feDropShadow dx="0" dy="10" stdDeviation="10" flood-color="#7795c8" flood-opacity="0.35"/>
    </filter>
  </defs>
  <g filter="url(#shadow)">
    <rect x="46" y="48" width="164" height="118" rx="24" fill="url(#frame)"/>
    <rect x="58" y="60" width="140" height="94" rx="16" fill="url(#glass)"/>
    <rect x="98" y="170" width="60" height="14" rx="5" fill="#586273"/>
    <rect x="82" y="184" width="92" height="10" rx="5" fill="#434c58"/>
    <rect x="78" y="118" width="14" height="20" rx="4" fill="#4b73df"/>
    <rect x="102" y="100" width="14" height="38" rx="4" fill="#61b86d"/>
    <rect x="126" y="86" width="14" height="52" rx="4" fill="#f0c24d"/>
    <rect x="150" y="74" width="14" height="64" rx="4" fill="#eb7059"/>
    <path d="M76 88c18-6 30-10 44-10 12 0 26 5 42 17l18-18 8 8-24 24-9-2c-16-13-28-18-39-18-10 0-20 3-35 8z" fill="#7fa3ff"/>
  </g>
</svg>
