<svg xmlns="http://www.w3.org/2000/svg" width="256" height="256" viewBox="0 0 256 256">
  <defs>
    <linearGradient id="doc" x1="0" x2="0" y1="0" y2="1">
      <stop offset="0" stop-color="#fffef7"/>
      <stop offset="1" stop-color="#eef4ff"/>
    </linearGradient>
    <linearGradient id="header" x1="0" x2="1" y1="0" y2="1">
      <stop offset="0" stop-color="#5b86eb"/>
      <stop offset="1" stop-color="#315cbe"/>
    </linearGradient>
    <filter id="shadow" x="-25%" y="-25%" width="170%" height="180%">
      <feDropShadow dx="0" dy="10" stdDeviation="10" flood-color="#8198c4" flood-opacity="0.35"/>
    </filter>
  </defs>
  <g filter="url(#shadow)">
    <path d="M64 42h86l42 42v122c0 9-7 16-16 16H64c-9 0-16-7-16-16V58c0-9 7-16 16-16z" fill="url(#doc)" stroke="#58657c" stroke-width="10"/>
    <path d="M150 42v34c0 9 7 16 16 16h26" fill="#d7e6ff"/>
    <path d="M150 42v34c0 9 7 16 16 16h26" fill="none" stroke="#8fa4ca" stroke-width="8" stroke-linejoin="round"/>
    <rect x="78" y="82" width="84" height="14" rx="6" fill="url(#header)"/>
    <rect x="78" y="108" width="34" height="34" rx="7" fill="#ffd35d"/>
    <rect x="120" y="108" width="52" height="12" rx="6" fill="#6f84a6"/>
    <rect x="120" y="130" width="40" height="12" rx="6" fill="#6f84a6"/>
    <rect x="78" y="160" width="94" height="12" rx="6" fill="#4e74d9"/>
    <path d="M86 190h44l18-18 8 8-24 24H86z" fill="#3bb56b"/>
    <path d="M126 182l16-16 8 8-16 16z" fill="#ffffff" opacity="0.85"/>
  </g>
</svg>
